<?xml version="1.0" encoding="UTF-8" standalone="no"?>
<!-- Created with Inkscape (http://www.inkscape.org/) -->

<svg
   version="1.1"
   id="svg106"
   width="256"
   height="256"
   viewBox="0 0 256 256"
   sodipodi:docname="tadu_icon.svg"
   inkscape:version="1.2.2 (b0a8486541, 2022-12-01)"
   xmlns:inkscape="http://www.inkscape.org/namespaces/inkscape"
   xmlns:sodipodi="http://sodipodi.sourceforge.net/DTD/sodipodi-0.dtd"
   xmlns="http://www.w3.org/2000/svg"
   xmlns:svg="http://www.w3.org/2000/svg">
  <defs
     id="defs110" />
  <sodipodi:namedview
     id="namedview108"
     pagecolor="#505050"
     bordercolor="#eeeeee"
     borderopacity="1"
     inkscape:showpageshadow="0"
     inkscape:pageopacity="0"
     inkscape:pagecheckerboard="0"
     inkscape:deskcolor="#505050"
     showgrid="false"
     inkscape:zoom="2.0000001"
     inkscape:cx="40.999999"
     inkscape:cy="174.75"
     inkscape:window-width="1920"
     inkscape:window-height="980"
     inkscape:window-x="1920"
     inkscape:window-y="36"
     inkscape:window-maximized="1"
     inkscape:current-layer="g112" />
  <g
     inkscape:groupmode="layer"
     inkscape:label="Image"
     id="g112">
    <g
       id="g805"
       transform="matrix(0.72154354,0,0,0.72154354,-8.7861589,15.755756)">
      <path
         style="display:inline;fill:#c9bd93;fill-opacity:1;stroke:#000000;stroke-width:3.80473;stroke-dasharray:none;stroke-opacity:1"
         d="M 136.12216,273.84386 C 94.405196,267.9919 56.436672,221.0905 33.458946,147.02699 c -2.368953,-7.63579 -9.947077,-36.79892 -9.947077,-38.27965 0,-0.77127 13.723089,0.24511 19.218474,1.4234 11.66801,2.50178 23.544862,7.57488 33.571309,14.33972 8.002745,5.39945 16.676998,14.84927 20.422873,22.2489 2.836598,5.60344 3.521585,8.9721 3.979385,19.56996 0.24235,5.6102 0.74022,11.19284 1.10639,12.40586 2.01397,6.67181 7.55197,13.4572 13.59028,16.65137 6.12163,3.23826 10.19856,4.19694 17.71156,4.1648 5.37868,-0.0229 6.75523,0.12562 6.75523,0.72938 0,1.50171 4.95822,16.68152 8.26648,25.30817 4.63688,12.09116 13.06592,26.36525 20.96876,35.5094 l 3.81712,4.41668 -2.87785,1.61718 c -9.5626,5.37362 -23.62402,8.15596 -33.91972,6.7117 z"
         id="path1634" />
      <path
         style="display:inline;fill:#c9bd93;fill-opacity:1;stroke:#000000;stroke-width:3.80473;stroke-dasharray:none;stroke-opacity:1"
         d="m 126.3569,184.85605 c -3.38137,-1.06924 -5.3267,-2.24838 -7.52165,-4.55916 -3.69521,-3.8902 -3.95062,-4.85379 -4.35987,-16.44874 -0.32984,-9.34501 -0.53404,-10.98206 -1.89132,-15.16271 C 108.46282,135.99134 99.535409,124.32028 86.376925,114.42412 75.789209,106.46137 59.183827,99.191509 44.966689,96.294637 39.307041,95.141432 24.352407,93.810466 22.033923,94.253603 20.938105,94.463058 20.736275,94.173213 20.238732,91.675622 19.479199,87.862856 17.651343,76.62382 16.911578,71.217763 16.5796,68.791729 16.197092,66.288461 16.061559,65.654945 c -0.227971,-1.065601 0.464953,-0.913742 9.254284,2.028127 18.301869,6.125803 36.8741,9.764047 59.131015,11.583586 7.695047,0.629082 38.480272,0.365814 45.992462,-0.393318 l 3.53099,-0.356816 -0.33947,2.967076 c -1.41817,12.39517 -1.73054,20.03575 -1.74434,42.66581 -0.01,16.15405 0.23507,27.50521 0.70188,32.53091 0.70374,7.57623 3.02831,24.71801 3.7323,27.52252 l 0.35757,1.42448 -4.05778,-0.0368 c -2.23178,-0.0203 -5.05038,-0.35076 -6.26357,-0.73439 z"
         id="path1636" />
      <path
         style="display:inline;fill:#26363f;fill-opacity:1;stroke:#000000;stroke-width:3.80473;stroke-dasharray:none;stroke-opacity:1"
         d="m 218.19465,275.40744 c -11.90842,-1.70023 -24.42635,-8.76293 -34.81595,-19.64335 -19.54895,-20.47248 -32.51253,-55.28043 -36.59389,-98.25671 -1.23688,-13.02423 -1.64123,-35.03871 -0.92159,-50.1748 0.60225,-12.666882 1.61342,-26.613758 2.02826,-27.975529 0.28996,-0.95183 7.7838,1.871959 15.1367,5.703736 8.20276,4.27465 15.30029,9.504826 22.0305,16.234293 6.88657,6.88581 11.81637,13.62906 15.49889,21.20022 4.02081,8.26663 5.18404,12.96581 5.18649,20.95211 0.002,6.32501 -0.10224,6.92942 -2.36413,13.7218 -3.77856,11.34661 -3.70702,17.75749 0.29167,26.13871 2.23087,4.67587 9.21915,11.42873 14.53336,14.04374 6.06586,2.98488 11.76498,4.29928 18.75508,4.32555 9.62759,0.0362 15.82997,-2.09673 20.94757,-7.20358 3.53082,-3.52339 5.38132,-6.98869 5.85144,-10.95758 0.3041,-2.56734 0.20027,-2.91972 -1.30326,-4.42304 -1.27892,-1.27875 -2.33226,-1.72075 -4.85052,-2.03534 -3.83688,-0.47932 -5.81211,0.10179 -6.66408,1.96047 -2.43601,5.31458 -2.7728,5.76013 -5.35219,7.08073 -9.16889,4.69431 -25.2037,-0.51991 -29.42725,-9.56918 -2.04031,-4.37155 -1.78951,-8.29345 1.03172,-16.13352 l 2.32918,-6.47271 0.007,-10.47605 c 0.007,-10.38795 -0.009,-10.52244 -1.8183,-15.98977 -2.4739,-7.4744 -7.6023,-17.64444 -12.09447,-23.98466 -4.41444,-6.230503 -14.58559,-16.633127 -20.97791,-21.455333 -8.78945,-6.630526 -18.1407,-11.669917 -28.77923,-15.509144 l -5.7902,-2.089564 0.11714,-2.114301 c 0.22831,-4.12094 4.17731,-27.2017 4.65407,-27.2017 0.26634,0 2.28553,1.431217 4.4871,3.180483 2.20157,1.749265 7.34696,5.429467 11.4342,8.178226 35.75031,24.04291 79.95164,39.200311 124.614,42.732275 9.95181,0.787005 32.08103,0.305978 40.80714,-0.887035 7.82991,-1.070499 15.89711,-2.684021 22.04457,-4.409163 2.57069,-0.721392 4.7672,-1.218409 4.88115,-1.104474 0.30187,0.301821 -3.3754,15.532749 -6.52368,27.02051 -7.68054,28.0256 -16.41193,51.7001 -27.26784,73.93477 -14.21136,29.1072 -26.5529,46.99305 -44.49703,64.48687 -9.89249,9.64424 -17.00594,14.86157 -27.27849,20.00731 -13.2993,6.6619 -26.29472,9.02826 -39.34684,7.16473 z"
         id="path1776" />
    </g>
  </g>
</svg>
